<svg width="126" height="44" viewBox="0 0 126 44" fill="none" xmlns="http://www.w3.org/2000/svg">
<path d="M104.69 20.7355C103.87 20.1564 103.283 20.0845 102.418 20.696C98.3036 23.6273 94.1378 26.476 89.9927 29.357C89.6306 29.6052 89.2892 29.8893 88.8719 30.2131C89.0926 30.5583 89.3202 30.9036 89.5547 31.2525C90.0789 32.0222 90.6134 32.7488 91.1583 33.4394C94.1206 28.4254 97.7277 25.5768 99.8555 25.1416C101.9 24.7244 103.57 25.2135 103.57 25.2135C104.214 25.4041 104.718 25.602 105.001 25.8178C107.515 27.7097 110.132 29.4433 112.663 31.213C112.643 31.3892 112.653 31.4539 112.625 31.4935C110.611 34.6443 110.46 34.6659 107.494 32.6049C104.476 30.5116 104.263 30.2634 103.58 30.1807C102.497 30.0476 101.462 30.8137 99.4382 32.3459C97.0001 34.1947 95.0827 35.6658 93.8964 36.5794C97.6312 40.4243 101.349 42.7011 103.632 43.9204C104.497 43.442 105.549 42.8198 106.725 42.0249C106.049 42.0105 103.756 41.8702 101.835 40.0395C100.787 39.0396 100.259 37.9246 99.9968 37.2376C101.107 36.4463 101.969 35.7017 102.942 35.1946C103.328 34.9932 104.063 35.1694 104.476 35.4392C106.339 36.6549 108.156 37.9497 110.218 39.3848C112.853 37.1692 115.705 34.2019 118.226 30.303L104.69 20.7355Z" fill="white"/>
<path d="M38.52 6.11517V13.4202C38.52 15.6431 37.9751 17.3012 36.8819 18.3946C35.7922 19.488 34.1024 20.0347 31.8195 20.0347C29.7538 20.0347 28.2261 19.5851 27.226 18.6859C26.1604 19.5851 24.6638 20.0347 22.736 20.0347C21.398 20.0347 20.3428 19.8045 19.5634 19.3477C18.8702 21.4483 17.715 23.11 16.1011 24.3365C14.4872 25.563 12.5008 26.1744 10.1524 26.1744C8.03841 26.1744 6.21413 25.6709 4.68298 24.6674C3.15184 23.6603 1.98968 22.2827 1.19307 20.5275C0.396461 18.7722 -0.00012207 16.8012 -0.00012207 14.6144C-0.00012207 13.6432 0.0929927 12.6289 0.279213 11.5715L5.252 12.9994C5.16578 13.6181 5.1244 14.1648 5.1244 14.6395C5.1244 16.8624 5.56237 18.578 6.44519 19.7865C7.32457 20.9951 8.55914 21.5993 10.1489 21.5993C11.7214 21.5993 12.9526 20.9915 13.8423 19.7722C14.732 18.5529 15.1734 16.8444 15.1734 14.6395C15.1734 13.3339 14.9975 11.9851 14.6423 10.5896L19.4393 8.71205C20.0152 10.6867 20.3014 12.6541 20.3014 14.6144V15.0891C20.6911 15.3193 21.2497 15.4344 21.9774 15.4344C22.805 15.4344 23.3602 15.2834 23.6396 14.9848C23.9189 14.6863 24.0568 14.1576 24.0568 13.3951V7.43879H29.1814V13.4202C29.1814 14.0029 29.1469 14.5065 29.0813 14.9273C29.2503 15.1215 29.4917 15.2546 29.8055 15.3229C30.1194 15.3949 30.547 15.4272 31.0884 15.4272C31.7298 15.4272 32.2126 15.3697 32.5333 15.2546C32.854 15.1395 33.0782 14.9417 33.2058 14.6575C33.3334 14.377 33.3955 13.9526 33.3955 13.3879V6.11157H38.52V6.11517Z" fill="white"/>
<path d="M39.3303 21.6495C40.2269 21.6315 40.858 21.4193 41.2201 21.0128C41.5822 20.6064 41.765 19.8835 41.765 18.844V6.14014H46.8895V18.844C46.8895 20.2719 46.6067 21.5308 46.0412 22.6134C45.4756 23.6996 44.6755 24.5485 43.6444 25.1671C42.6133 25.7858 41.396 26.1275 39.989 26.1994L39.3303 21.6495Z" fill="white"/>
<path d="M58.0937 16.0491C58.1868 16.4627 58.2316 17.0166 58.2316 17.7036C58.2316 18.4086 58.1834 18.9733 58.0937 19.3977C58.0006 19.8221 57.8764 20.0343 57.7247 20.0343H49.8828V0.000244141H55.0073V15.4304H57.7213C57.8799 15.4304 58.0006 15.6355 58.0937 16.0491Z" fill="white"/>
<path d="M73.9918 15.4309L73.1538 20.0348H57.7285C57.5768 20.0348 57.4526 19.8226 57.3595 19.3982C57.2664 18.9738 57.2216 18.4091 57.2216 17.7041C57.2216 17.0171 57.2698 16.4632 57.3595 16.0496C57.4526 15.636 57.5768 15.4273 57.7285 15.4273H68.1051V13.9455C68.1051 12.8161 67.7637 11.9169 67.0775 11.2479C66.3912 10.5789 65.4842 10.2408 64.3497 10.2408C63.0806 10.2408 61.9219 10.6364 60.8736 11.4313L58.6424 7.16913C60.4183 6.14765 62.3219 5.6333 64.3497 5.6333C66.0084 5.6333 67.512 5.98939 68.8672 6.70515C70.2191 7.42091 71.2847 8.40642 72.064 9.66889C72.8434 10.9314 73.2296 12.3557 73.2296 13.9419V15.4237H73.9918V15.4309Z" fill="white"/>
<path d="M3.30364 31.7061V35.81H7.89364V31.7061H9.65584V41.3095H7.89364V37.4141H3.30364V41.3095H1.54144V31.7061H3.30364Z" fill="white"/>
<path d="M25.8225 39.2805H21.3256L20.5117 41.3126H18.684L22.7222 31.7092H24.55L28.5365 41.3126H26.6432L25.8225 39.2805ZM25.1914 37.7015L23.5878 33.6695L21.9567 37.7015H25.1914Z" fill="white"/>
<path d="M43.3031 41.3095L41.7099 38.468C41.641 38.4788 41.5306 38.4824 41.3823 38.4824H39.3029V41.3095H37.5406V31.7061H41.3823C42.5755 31.7061 43.4963 31.9938 44.1446 32.5693C44.7929 33.1448 45.1171 33.9612 45.1171 35.0115C45.1171 35.7632 44.9619 36.4035 44.6515 36.9322C44.3412 37.4645 43.886 37.8602 43.2894 38.1263L45.3136 41.3095H43.3031ZM39.3063 36.8674H41.3858C42.0513 36.8674 42.5617 36.7164 42.91 36.4142C43.2618 36.1121 43.4376 35.6661 43.4376 35.0691C43.4376 34.4828 43.2618 34.044 42.91 33.7526C42.5583 33.4613 42.0513 33.3138 41.3858 33.3138H39.3063V36.8674Z" fill="white"/>
<path d="M56.7075 31.7061V41.3095H54.9453V31.7061H56.7075Z" fill="white"/>
<path d="M71.1948 33.4789C70.6982 33.3135 70.2637 33.2307 69.8844 33.2307C69.4637 33.2307 69.1292 33.3135 68.8843 33.4789C68.6395 33.6444 68.5153 33.871 68.5153 34.1659C68.5153 34.4321 68.6015 34.6515 68.7705 34.8313C68.9395 35.0112 69.1567 35.155 69.4154 35.2701C69.674 35.3852 70.0258 35.5111 70.4741 35.6478C71.0983 35.8384 71.6087 36.0326 72.0052 36.2233C72.4053 36.4139 72.7432 36.698 73.026 37.0757C73.3053 37.4498 73.4467 37.9461 73.4467 38.5576C73.4467 39.1439 73.295 39.6546 72.9915 40.0862C72.688 40.5214 72.2708 40.8523 71.7431 41.0825C71.2121 41.3127 70.6051 41.4242 69.9223 41.4242C69.2016 41.4242 68.5015 41.2839 67.8187 41.007C67.1359 40.7264 66.5393 40.356 66.0289 39.8884L66.7669 38.3238C67.2325 38.7734 67.7532 39.1259 68.3325 39.3812C68.9119 39.6366 69.4499 39.7661 69.9499 39.7661C70.4396 39.7661 70.8258 39.669 71.1086 39.4712C71.3879 39.2733 71.5293 39.0072 71.5293 38.6691C71.5293 38.3957 71.4431 38.1691 71.2741 37.9893C71.1017 37.8095 70.8879 37.6656 70.6224 37.5577C70.3568 37.4498 69.9982 37.3239 69.543 37.1872C68.9188 36.9966 68.4119 36.8095 68.0187 36.6261C67.6256 36.4427 67.2876 36.1657 67.0049 35.7953C66.7255 35.4248 66.5841 34.9392 66.5841 34.335C66.5841 33.7775 66.7255 33.2919 67.0118 32.8747C67.298 32.4574 67.7015 32.1373 68.2222 31.9071C68.7429 31.6769 69.3464 31.5654 70.0292 31.5654C70.6258 31.5654 71.2155 31.6554 71.7983 31.8388C72.3811 32.0222 72.9019 32.2704 73.3571 32.5797L72.6467 34.1839C72.1742 33.8746 71.6914 33.6408 71.1948 33.4789Z" fill="white"/>
<path d="M107.128 3.00336L103.545 0.5L99.9658 3.00336L81.9611 15.5741L84.1785 19.0306L103.545 5.50313L122.926 19.0378L125.144 15.5849L107.128 3.00336Z" fill="white"/>
<path d="M107.129 12.3084L103.546 9.80859L99.9661 12.3084L84.7305 22.9476L86.9479 26.4041L103.546 14.8117L119.933 26.2531L122.15 22.7966L107.129 12.3084Z" fill="white"/>
</svg>
