<svg width="1243" height="139" viewBox="0 0 1243 139" fill="none" xmlns="http://www.w3.org/2000/svg">
<path d="M531.5 66.5L533.342 60.9743C533.436 60.6911 533.701 60.5 534 60.5C534.299 60.5 534.564 60.6911 534.658 60.9743L536.5 66.5M539.5 60.5V66.5M532.5 64.5H535.5" stroke="#C8FFBE" stroke-width="1.5" stroke-linecap="round" stroke-linejoin="round"/>
<path d="M545 63.1833V60.2803C545 58.6403 545 57.8203 544.596 57.2853C544.192 56.7503 543.278 56.4906 541.451 55.9711C540.202 55.6162 539.102 55.1886 538.222 54.7983C537.023 54.2661 536.424 54 536 54C535.576 54 534.977 54.2661 533.778 54.7983C532.898 55.1886 531.798 55.6162 530.549 55.9711C528.722 56.4906 527.808 56.7503 527.404 57.2853C527 57.8203 527 58.6403 527 60.2803V63.1833C527 68.8085 532.063 72.1835 534.594 73.5194C535.201 73.8398 535.505 74 536 74C536.495 74 536.799 73.8398 537.406 73.5194C539.937 72.1835 545 68.8085 545 63.1833Z" stroke="#C8FFBE" stroke-width="1.5" stroke-linecap="round"/>
<path d="M839 130.5C839.426 130.309 839.789 130.061 840.109 129.74C841.5 128.338 841.5 126.082 841.5 121.571C841.5 117.059 841.5 114.803 840.109 113.402C838.718 112 836.478 112 832 112C827.522 112 825.282 112 823.891 113.402C822.5 114.803 822.5 117.059 822.5 121.571C822.5 126.082 822.5 128.338 823.891 129.74C824.211 130.061 824.575 130.309 825 130.5" stroke="#C8FFBE" stroke-width="1.5" stroke-linecap="round"/>
<path d="M822.5 118.5H841.5" stroke="#C8FFBE" stroke-width="1.5" stroke-linejoin="round"/>
<path d="M827 115.5H827.009" stroke="#C8FFBE" stroke-width="2" stroke-linecap="round" stroke-linejoin="round"/>
<path d="M831 115.5H831.009" stroke="#C8FFBE" stroke-width="2" stroke-linecap="round" stroke-linejoin="round"/>
<path d="M830.26 126.378C829.18 126.378 828.717 127.157 828.597 127.637C828.477 128.117 828.477 129.856 828.549 130.575C828.789 131.475 829.389 131.847 829.977 131.967C830.517 132.015 832.797 131.997 833.457 131.997C834.417 132.015 835.137 131.655 835.437 130.575C835.497 130.216 835.557 128.237 835.407 127.637C835.089 126.678 834.36 126.378 833.76 126.378M830.26 126.378H833.76M830.26 126.378C830.26 126.318 830.258 125.552 830.26 125.117C830.261 124.72 830.226 124.338 830.416 123.988C831.126 122.575 833.166 122.719 833.67 124.158C833.757 124.395 833.763 124.77 833.76 125.117C833.757 125.56 833.76 126.378 833.76 126.378" stroke="#C8FFBE" stroke-width="1.5" stroke-linecap="round"/>
<path d="M680.999 90C677.699 90 676.05 90 675.024 91.0251C673.999 92.0503 673.999 93.7002 673.999 97V103C673.999 106.3 673.999 107.95 675.024 108.975C676.05 110 677.699 110 680.999 110C684.299 110 685.949 110 686.974 108.975C687.999 107.95 687.999 106.3 687.999 103V102" stroke="#C8FFBE" stroke-width="1.5" stroke-linecap="round"/>
<path d="M679.999 107H681.999" stroke="#C8FFBE" stroke-width="1.5" stroke-linecap="round" stroke-linejoin="round"/>
<path d="M684.836 93.3799C683.756 93.3799 683.216 94.1599 683.096 94.6399C682.976 95.1199 682.976 96.8599 683.048 97.5799C683.288 98.4799 683.888 98.8519 684.476 98.9719C685.016 99.0199 687.296 99.0019 687.956 99.0019C688.916 99.0199 689.636 98.6599 689.936 97.5799C689.996 97.2199 690.056 95.2399 689.906 94.6399C689.588 93.6799 688.796 93.3799 688.196 93.3799H684.836Z" stroke="#C8FFBE" stroke-width="1.5" stroke-linecap="round"/>
<path d="M684.75 92.9585C684.75 92.8985 684.758 92.5531 684.759 92.1185C684.76 91.7215 684.726 91.3385 684.915 90.9881C685.626 89.5745 687.666 89.7185 688.17 91.1585C688.257 91.3956 688.262 91.7715 688.26 92.1185C688.256 92.562 688.266 92.9585 688.266 92.9585" stroke="#C8FFBE" stroke-width="1.5" stroke-linecap="round"/>
<path d="M182.999 86C179.699 86 178.05 86 177.024 87.0251C175.999 88.0503 175.999 89.7002 175.999 93V99C175.999 102.3 175.999 103.95 177.024 104.975C178.05 106 179.699 106 182.999 106C186.299 106 187.949 106 188.974 104.975C189.999 103.95 189.999 102.3 189.999 99V98" stroke="#C8FFBE" stroke-width="1.5" stroke-linecap="round"/>
<path d="M181.999 103H183.999" stroke="#C8FFBE" stroke-width="1.5" stroke-linecap="round" stroke-linejoin="round"/>
<path d="M186.836 89.3799C185.756 89.3799 185.216 90.1599 185.096 90.6399C184.976 91.1199 184.976 92.8599 185.048 93.5799C185.288 94.4799 185.888 94.8519 186.476 94.9719C187.016 95.0199 189.296 95.0019 189.956 95.0019C190.916 95.0199 191.636 94.6599 191.936 93.5799C191.996 93.2199 192.056 91.2399 191.906 90.6399C191.588 89.6799 190.796 89.3799 190.196 89.3799H186.836Z" stroke="#C8FFBE" stroke-width="1.5" stroke-linecap="round"/>
<path d="M186.75 88.9585C186.75 88.8985 186.758 88.5531 186.759 88.1185C186.76 87.7215 186.726 87.3385 186.915 86.9881C187.626 85.5745 189.666 85.7185 190.17 87.1585C190.257 87.3956 190.262 87.7715 190.26 88.1185C190.256 88.562 190.266 88.9585 190.266 88.9585" stroke="#C8FFBE" stroke-width="1.5" stroke-linecap="round"/>
<path d="M939 60.5C939 60.5 939.5 60.5 940 61.5C940 61.5 941.588 59 943 58.5" stroke="#C8FFBE" stroke-width="1.5" stroke-linecap="round" stroke-linejoin="round"/>
<path d="M946 60C946 62.7614 943.761 65 941 65C938.239 65 936 62.7614 936 60C936 57.2386 938.239 55 941 55C943.761 55 946 57.2386 946 60Z" stroke="#C8FFBE" stroke-width="1.5" stroke-linecap="round"/>
<path d="M950 59.1833V56.2803C950 54.6403 950 53.8203 949.596 53.2853C949.192 52.7503 948.278 52.4906 946.451 51.9711C945.202 51.6162 944.102 51.1886 943.222 50.7983C942.023 50.2661 941.424 50 941 50C940.576 50 939.977 50.2661 938.778 50.7983C937.898 51.1886 936.798 51.6162 935.549 51.9711C933.722 52.4906 932.808 52.7503 932.404 53.2853C932 53.8203 932 54.6403 932 56.2803V59.1833C932 64.8085 937.063 68.1835 939.594 69.5194C940.201 69.8398 940.505 70 941 70C941.495 70 941.799 69.8398 942.406 69.5194C944.937 68.1835 950 64.8085 950 59.1833Z" stroke="#C8FFBE" stroke-width="1.5" stroke-linecap="round"/>
<path d="M1099.17 20.8905C1103.35 20.6125 1106.69 17.2332 1106.96 12.9909C1107.01 12.1607 1107.01 11.3009 1106.96 10.4707C1106.69 6.22838 1103.35 2.84913 1099.17 2.57107C1097.74 2.47621 1096.25 2.47641 1094.83 2.57107C1090.65 2.84913 1087.31 6.22838 1087.04 10.4707C1086.99 11.3009 1086.99 12.1607 1087.04 12.9909C1087.14 14.536 1087.82 15.9666 1088.63 17.1746C1089.1 18.0203 1088.79 19.0758 1088.3 19.9978C1087.95 20.6626 1087.77 20.995 1087.91 21.2351C1088.06 21.4752 1088.37 21.4829 1089 21.4982C1090.24 21.5285 1091.08 21.1757 1091.75 20.6846C1092.13 20.4061 1092.32 20.2668 1092.45 20.2508C1092.58 20.2348 1092.83 20.3403 1093.34 20.5513C1093.8 20.7409 1094.34 20.8579 1094.83 20.8905C1096.25 20.9852 1097.74 20.9854 1099.17 20.8905Z" stroke="#C8FFBE" stroke-width="1.5" stroke-linejoin="round"/>
<path d="M1092.5 15L1094.34 9.47434C1094.44 9.19107 1094.7 9 1095 9C1095.3 9 1095.56 9.19107 1095.66 9.47434L1097.5 15M1100.5 9V15M1093.5 13H1096.5" stroke="#C8FFBE" stroke-width="1.5" stroke-linecap="round" stroke-linejoin="round"/>
<path d="M1224.14 53C1223.42 51.8082 1223 50.4118 1223 48.9189C1223 44.5454 1226.58 41 1231 41C1235.42 41 1239 44.5454 1239 48.9189C1239 50.4118 1238.58 51.8082 1237.86 53" stroke="#C8FFBE" stroke-width="1.5" stroke-linecap="round"/>
<path d="M1226.38 56.0982C1226.29 55.8216 1226.25 55.6833 1226.25 55.5713C1226.26 55.3343 1226.41 55.1262 1226.63 55.0405C1226.74 55 1226.88 55 1227.17 55H1234.83C1235.12 55 1235.26 55 1235.37 55.0405C1235.59 55.1262 1235.74 55.3343 1235.75 55.5713C1235.75 55.6833 1235.71 55.8216 1235.62 56.0982C1235.45 56.6094 1235.36 56.8651 1235.23 57.072C1234.96 57.5056 1234.53 57.8167 1234.03 57.9408C1233.79 58 1233.52 58 1232.99 58H1229.01C1228.47 58 1228.21 58 1227.97 57.9408C1227.47 57.8167 1227.04 57.5056 1226.77 57.072C1226.64 56.8651 1226.55 56.6094 1226.38 56.0982Z" stroke="#C8FFBE" stroke-width="1.5"/>
<path d="M1234 58L1233.87 58.6466C1233.73 59.3537 1233.66 59.7072 1233.5 59.9866C1233.26 60.4185 1232.86 60.7439 1232.39 60.8994C1232.08 61 1231.72 61 1231 61C1230.28 61 1229.92 61 1229.61 60.8994C1229.14 60.7439 1228.74 60.4185 1228.5 59.9866C1228.34 59.7072 1228.27 59.3537 1228.13 58.6466L1228 58" stroke="#C8FFBE" stroke-width="1.5"/>
<path d="M1227.25 48.75L1229.5 51V55M1227.25 49.5C1227.66 49.5 1228 49.1642 1228 48.75C1228 48.3358 1227.66 48 1227.25 48C1226.84 48 1226.5 48.3358 1226.5 48.75C1226.5 49.1642 1226.84 49.5 1227.25 49.5Z" stroke="#C8FFBE" stroke-width="1.5" stroke-linecap="round" stroke-linejoin="round"/>
<path d="M1234.75 48.75L1232.5 51V55M1234.75 49.5C1234.34 49.5 1234 49.1642 1234 48.75C1234 48.3358 1234.34 48 1234.75 48C1235.16 48 1235.5 48.3358 1235.5 48.75C1235.5 49.1642 1235.16 49.5 1234.75 49.5Z" stroke="#C8FFBE" stroke-width="1.5" stroke-linecap="round" stroke-linejoin="round"/>
<path d="M351.143 42C350.417 40.8082 350 39.4118 350 37.9189C350 33.5454 353.582 30 358 30C362.418 30 366 33.5454 366 37.9189C366 39.4118 365.583 40.8082 364.857 42" stroke="#C8FFBE" stroke-width="1.5" stroke-linecap="round"/>
<path d="M353.383 45.0982C353.291 44.8216 353.245 44.6833 353.25 44.5713C353.262 44.3343 353.411 44.1262 353.632 44.0405C353.736 44 353.881 44 354.172 44H361.828C362.119 44 362.264 44 362.368 44.0405C362.589 44.1262 362.738 44.3343 362.75 44.5713C362.755 44.6833 362.709 44.8216 362.617 45.0982C362.447 45.6094 362.362 45.8651 362.231 46.072C361.957 46.5056 361.527 46.8167 361.031 46.9408C360.793 47 360.525 47 359.988 47H356.012C355.475 47 355.206 47 354.969 46.9408C354.473 46.8167 354.043 46.5056 353.768 46.072C353.638 45.8651 353.553 45.6094 353.383 45.0982Z" stroke="#C8FFBE" stroke-width="1.5"/>
<path d="M361 47L360.871 47.6466C360.729 48.3537 360.659 48.7072 360.5 48.9866C360.255 49.4185 359.858 49.7439 359.387 49.8994C359.082 50 358.721 50 358 50C357.279 50 356.918 50 356.613 49.8994C356.142 49.7439 355.745 49.4185 355.5 48.9866C355.341 48.7072 355.271 48.3537 355.129 47.6466L355 47" stroke="#C8FFBE" stroke-width="1.5"/>
<path d="M354.25 37.75L356.5 40V44M354.25 38.5C354.664 38.5 355 38.1642 355 37.75C355 37.3358 354.664 37 354.25 37C353.836 37 353.5 37.3358 353.5 37.75C353.5 38.1642 353.836 38.5 354.25 38.5Z" stroke="#C8FFBE" stroke-width="1.5" stroke-linecap="round" stroke-linejoin="round"/>
<path d="M361.75 37.75L359.5 40V44M361.75 38.5C361.336 38.5 361 38.1642 361 37.75C361 37.3358 361.336 37 361.75 37C362.164 37 362.5 37.3358 362.5 37.75C362.5 38.1642 362.164 38.5 361.75 38.5Z" stroke="#C8FFBE" stroke-width="1.5" stroke-linecap="round" stroke-linejoin="round"/>
<path d="M5.14286 129C4.41735 127.808 4 126.412 4 124.919C4 120.545 7.58172 117 12 117C16.4183 117 20 120.545 20 124.919C20 126.412 19.5827 127.808 18.8571 129" stroke="#C8FFBE" stroke-width="1.5" stroke-linecap="round"/>
<path d="M7.38287 132.098C7.291 131.822 7.24507 131.683 7.25042 131.571C7.26174 131.334 7.41114 131.126 7.63157 131.041C7.73579 131 7.88105 131 8.17157 131H15.8284C16.119 131 16.2642 131 16.3684 131.041C16.5889 131.126 16.7383 131.334 16.7496 131.571C16.7549 131.683 16.709 131.822 16.6171 132.098C16.4473 132.609 16.3624 132.865 16.2315 133.072C15.9572 133.506 15.5272 133.817 15.0306 133.941C14.7935 134 14.525 134 13.9881 134H10.0119C9.47495 134 9.2065 134 8.96944 133.941C8.47283 133.817 8.04281 133.506 7.7685 133.072C7.63755 132.865 7.55266 132.609 7.38287 132.098Z" stroke="#C8FFBE" stroke-width="1.5"/>
<path d="M15 134L14.8707 134.647C14.7293 135.354 14.6586 135.707 14.5001 135.987C14.2552 136.419 13.8582 136.744 13.3866 136.899C13.0816 137 12.7211 137 12 137C11.2789 137 10.9184 137 10.6134 136.899C10.1418 136.744 9.74484 136.419 9.49987 135.987C9.34144 135.707 9.27073 135.354 9.12932 134.647L9 134" stroke="#C8FFBE" stroke-width="1.5"/>
<path d="M8.25 124.75L10.5 127V131M8.25 125.5C8.66421 125.5 9 125.164 9 124.75C9 124.336 8.66421 124 8.25 124C7.83579 124 7.5 124.336 7.5 124.75C7.5 125.164 7.83579 125.5 8.25 125.5Z" stroke="#C8FFBE" stroke-width="1.5" stroke-linecap="round" stroke-linejoin="round"/>
<path d="M15.75 124.75L13.5 127V131M15.75 125.5C15.3358 125.5 15 125.164 15 124.75C15 124.336 15.3358 124 15.75 124C16.1642 124 16.5 124.336 16.5 124.75C16.5 125.164 16.1642 125.5 15.75 125.5Z" stroke="#C8FFBE" stroke-width="1.5" stroke-linecap="round" stroke-linejoin="round"/>
</svg>
